# This file uses centimeters as units for non-parametric coordinates.

mtllib robotBlock6.mtl
g default
v 0.022705 -0.048719 -0.005851
v 0.019068 -0.045195 -0.001645
v 0.017814 -0.040359 0.000000
v 0.012422 -0.040528 -0.002028
v 0.010092 -0.040750 -0.007010
v 0.011897 -0.040894 -0.011897
v 0.013999 -0.045440 -0.011781
v 0.019809 -0.048779 -0.011634
v 0.027758 -0.050000 -0.011498
v 0.020192 0.048719 -0.011918
v 0.014646 0.045195 -0.012319
v 0.012596 0.040359 -0.012596
v 0.010218 0.040528 -0.007350
v 0.012093 0.040750 -0.002179
v 0.016825 0.040894 0.000000
v 0.018229 0.045440 -0.001569
v 0.022234 0.048779 -0.005780
v 0.027758 0.050000 -0.011498
v 0.180360 -0.045010 -0.164215
v 0.177204 -0.048671 -0.161622
v 0.173029 -0.050000 -0.157937
v 0.170571 -0.048671 -0.162932
v 0.168649 -0.045010 -0.166535
v 0.167778 -0.040001 -0.167778
v 0.172681 -0.039991 -0.170196
v 0.178042 -0.039991 -0.169129
v 0.181647 -0.040001 -0.165019
v 0.245567 -0.040178 -0.006191
v 0.242584 -0.040178 -0.001726
v 0.237499 -0.040178 0.000000
v 0.237180 -0.045094 -0.001481
v 0.235910 -0.048690 -0.005388
v 0.234029 -0.050000 -0.010672
v 0.239630 -0.048691 -0.010948
v 0.243726 -0.045094 -0.011269
v 0.245216 -0.040178 -0.011550
v 0.177204 0.048671 -0.161622
v 0.180360 0.045010 -0.164215
v 0.181647 0.040001 -0.165019
v 0.178066 0.040054 -0.169157
v 0.172764 0.040122 -0.170278
v 0.167937 0.040178 -0.167937
v 0.168759 0.045094 -0.166665
v 0.170624 0.048690 -0.163003
v 0.173029 0.050000 -0.157937
v 0.243648 0.045011 -0.011421
v 0.239584 0.048671 -0.011023
v 0.234029 0.050000 -0.010672
v 0.235822 0.048671 -0.005402
v 0.237011 0.045010 -0.001495
v 0.237274 0.040001 0.000000
v 0.242450 0.039993 -0.001757
v 0.245487 0.039993 -0.006303
v 0.245130 0.040001 -0.011758
v 0.016999 -0.048064 -0.006975
v 0.013980 -0.044634 -0.002888
v 0.011780 -0.044754 -0.007589
v 0.016952 0.048064 -0.007088
v 0.011927 0.044634 -0.007843
v 0.013696 0.044754 -0.002964
v 0.177669 -0.044327 -0.167990
v 0.174522 -0.047924 -0.165466
v 0.172583 -0.044327 -0.168998
v 0.244494 -0.044429 -0.006750
v 0.241652 -0.044429 -0.002500
v 0.240484 -0.047958 -0.006355
v 0.174552 0.047942 -0.165508
v 0.177686 0.044360 -0.168019
v 0.172647 0.044399 -0.169075
v 0.244416 0.044328 -0.006846
v 0.240406 0.047925 -0.006407
v 0.241534 0.044328 -0.002536
v 0.012812 0.044694 -0.005403
v 0.011155 0.040639 -0.004765
v 0.011257 -0.040639 -0.004519
v 0.012880 -0.044694 -0.005238
vt 0.218931 0.065343
vt 0.225732 0.066348
vt 0.225258 0.631822
vt 0.217959 0.630645
vt 0.219093 0.033718
vt 0.224927 0.038487
vt 0.229198 0.067118
vt 0.228856 0.632592
vt 0.218344 0.664287
vt 0.224573 0.660388
vt 0.001809 0.629383
vt 0.002031 0.071558
vt 0.003760 0.036710
vt 0.219297 0.010489
vt 0.225780 0.015458
vt 0.228197 0.038905
vt 0.232664 0.067888
vt 0.232453 0.633363
vt 0.227967 0.660805
vt 0.003580 0.663585
vt 0.225623 0.684252
vt 0.218903 0.688809
vt 0.008773 0.011241
vt 0.219487 0.001992
vt 0.227344 0.010901
vt 0.231467 0.039323
vt 0.231362 0.661223
vt 0.008674 0.688607
vt 0.227443 0.689221
vt 0.219487 0.697718
vt 0.015724 0.001992
vt 0.015724 0.697718
vt 0.461687 0.011237
vt 0.465295 0.036710
vt 0.252478 0.036121
vt 0.252031 0.011098
vt 0.470548 0.041463
vt 0.467035 0.016434
vt 0.466414 0.071558
vt 0.252869 0.070327
vt 0.245640 0.016199
vt 0.246189 0.040754
vt 0.456560 0.001992
vt 0.251647 0.001992
vt 0.472133 0.071629
vt 0.466414 0.628153
vt 0.253158 0.628153
vt 0.245412 0.070324
vt 0.244295 0.011103
vt 0.240277 0.040753
vt 0.472172 0.628520
vt 0.465295 0.663000
vt 0.252689 0.663005
vt 0.245567 0.628096
vt 0.239200 0.070324
vt 0.470588 0.658478
vt 0.461687 0.688473
vt 0.252136 0.688475
vt 0.246324 0.658257
vt 0.239243 0.628096
vt 0.467094 0.683398
vt 0.456560 0.697718
vt 0.251647 0.697718
vt 0.245712 0.683280
vt 0.240326 0.658260
vt 0.244314 0.688469
vt 0.686528 0.990187
vt 0.469512 0.776175
vt 0.687752 0.686311
vt 0.694896 0.997631
vt 0.695582 0.683539
vt 0.740651 0.983775
vt 0.739475 0.689971
vt 0.949234 0.776856
vt 0.732507 0.991643
vt 0.731968 0.687416
vt 0.507386 0.060156
vt 0.509131 0.026514
vt 0.812625 0.027216
vt 0.813067 0.061418
vt 0.499884 0.058979
vt 0.502051 0.030413
vt 0.514192 0.001992
vt 0.810857 0.002194
vt 0.820143 0.061415
vt 0.818847 0.031844
vt 0.812754 0.619243
vt 0.506011 0.625458
vt 0.499426 0.624453
vt 0.506253 0.006549
vt 0.817221 0.007289
vt 0.819957 0.619187
vt 0.507964 0.657083
vt 0.812388 0.654091
vt 0.501656 0.652314
vt 0.818682 0.649350
vt 0.513536 0.680312
vt 0.810735 0.679560
vt 0.506188 0.675343
vt 0.817113 0.674371
vt 0.492465 0.628081
vt 0.485005 0.628081
vt 0.485121 0.070714
vt 0.492498 0.071190
vt 0.484869 0.658250
vt 0.491945 0.658247
vt 0.478183 0.628153
vt 0.478404 0.070327
vt 0.491969 0.041232
vt 0.484958 0.040961
vt 0.479395 0.663000
vt 0.487567 0.683277
vt 0.479548 0.036125
vt 0.487608 0.016312
vt 0.482070 0.688469
vt 0.482143 0.011103
vt 0.491300 0.688473
vt 0.485490 0.697718
vt 0.485490 0.001992
vt 0.491300 0.011237
vn -0.009410 -0.015609 0.999834
vn -0.007766 -0.489864 0.871764
vn 0.005692 -0.530527 0.847649
vn 0.007616 -0.017408 0.999820
vn -0.005988 -0.841290 0.540550
vn 0.004541 -0.868632 0.495437
vn -0.025745 -0.999613 0.010582
vn 0.017544 -0.999702 0.016985
vn -0.713641 -0.015065 -0.700350
vn -0.990103 -0.015399 -0.139494
vn -0.991038 0.020643 -0.131972
vn -0.713643 0.015609 -0.700336
vn -0.922646 -0.020216 0.385118
vn -0.607451 -0.020643 0.794089
vn -0.601471 0.015399 0.798746
vn -0.924729 0.020216 0.380089
vn -0.009398 0.015065 0.999842
vn -0.384816 -0.842625 -0.376696
vn -0.340279 -0.873594 -0.347913
vn 0.000654 -0.999710 -0.024068
vn -0.623286 -0.486149 -0.612514
vn -0.591546 -0.537058 -0.601367
vn -0.701555 -0.017174 -0.712408
vn -0.621922 0.489864 -0.610939
vn -0.595208 0.530551 -0.603526
vn -0.701573 0.017417 -0.712385
vn -0.386461 0.841291 -0.377992
vn -0.346986 0.868645 -0.353634
vn -0.025687 0.999613 0.010722
vn 0.000409 0.999701 -0.024445
vn -0.005742 0.842625 0.538471
vn 0.005401 0.873595 0.486624
vn 0.017597 0.999709 0.016506
vn -0.007617 0.486149 0.873843
vn 0.006946 0.537059 0.843516
vn 0.007611 0.017179 0.999823
vn 0.470390 -0.858824 -0.202865
vn 0.477457 -0.857770 -0.190433
vn 0.790339 -0.511895 -0.336642
vn 0.797603 -0.510036 -0.322013
vn 0.919856 -0.016899 -0.391892
vn 0.927563 -0.016806 -0.373289
vn 0.504655 -0.014310 -0.863203
vn 0.503260 0.013260 -0.864033
vn 0.919841 0.016951 -0.391926
vn -0.126121 -0.014610 -0.991907
vn -0.127037 0.013009 -0.991813
vn 0.608730 -0.012499 0.793279
vn 0.608235 0.015143 0.793612
vn 0.965845 -0.012507 0.258819
vn 0.965963 0.015149 0.258236
vn 0.927539 0.016956 -0.373343
vn 0.792084 0.509138 -0.336722
vn 0.798304 0.509103 -0.321755
vn 0.473667 0.856811 -0.203750
vn 0.479001 0.856868 -0.190616
vn -0.329667 -0.925899 0.184472
vn -0.415269 -0.607208 0.677385
vn -0.688680 -0.640207 0.340376
vn -0.767138 -0.635645 -0.086338
vn -0.363552 0.925899 0.102668
vn -0.772623 0.607208 -0.185344
vn -0.727652 0.640207 0.246288
vn -0.481399 0.635645 0.603499
vn 0.486725 -0.466003 -0.738878
vn 0.100399 -0.855539 -0.507911
vn -0.167811 -0.466017 -0.868716
vn 0.862182 -0.475158 0.175692
vn 0.491841 -0.475087 0.729647
vn 0.422438 -0.861197 0.282641
vn 0.110243 0.858428 -0.500947
vn 0.496722 0.468508 -0.730594
vn -0.156045 0.472669 -0.867314
vn 0.866532 0.466307 0.177989
vn 0.430221 0.855600 0.287851
vn 0.495663 0.466272 0.732740
s 1
g RubIC_Slice3:Mesh
usemtl initialShadingGroup
f 3/77/1 2/78/2 31/79/3 30/80/4
f 2/78/2 1/83/5 32/84/6 31/79/3
f 1/70/5 9/67/7 33/69/8 32/71/6
f 6/1/9 5/2/10 13/3/11 12/4/12
f 75/7/13 4/17/14 14/18/15 74/8/16
f 4/81/14 3/77/1 15/88/17 14/89/15
f 9/24/7 8/14/18 22/23/19 21/31/20
f 8/14/18 7/5/21 23/13/22 22/23/19
f 7/5/21 6/1/9 24/12/23 23/13/22
f 12/4/12 11/9/24 43/20/25 42/11/26
f 11/9/24 10/22/27 44/28/28 43/20/25
f 10/22/27 18/30/29 45/32/30 44/28/28
f 18/72/29 17/75/31 49/76/32 48/73/33
f 17/97/31 16/93/34 50/94/35 49/98/32
f 16/93/34 15/88/17 51/87/36 50/94/35
f 21/43/20 20/33/37 34/36/38 33/44/8
f 20/33/37 19/34/39 35/35/40 34/36/38
f 19/34/39 27/39/41 36/40/42 35/35/40
f 27/39/41 26/45/43 40/51/44 39/46/45
f 26/101/43 25/102/46 41/103/47 40/104/44
f 25/102/46 24/107/23 42/108/26 41/103/47
f 30/80/4 29/85/48 52/92/49 51/87/36
f 29/55/48 28/48/50 53/54/51 52/60/49
f 28/48/50 36/40/42 54/47/52 53/54/51
f 39/46/45 38/52/53 46/53/54 54/47/52
f 38/52/53 37/57/55 47/58/56 46/53/54
f 37/57/55 45/62/30 48/63/33 47/58/56
f 9/67/7 21/68/20 33/69/8
f 18/72/29 48/73/33 45/74/30
f 27/39/41 39/46/45 54/47/52 36/40/42
f 6/1/9 12/4/12 42/11/26 24/12/23
f 30/80/4 51/87/36 15/88/17 3/77/1
f 8/14/18 9/24/7 1/25/5 55/15/57
f 55/90/57 1/83/5 2/78/2 56/82/58
f 2/78/2 3/77/1 4/81/14 56/82/58
f 56/26/58 4/17/14 75/7/13 76/16/59
f 5/2/10 6/1/9 7/5/21 57/6/60
f 57/6/60 7/5/21 8/14/18 55/15/57
f 55/15/57 56/26/58 76/16/59 57/6/60
f 17/29/31 18/30/29 10/22/27 58/21/61
f 58/21/61 10/22/27 11/9/24 59/10/62
f 11/9/24 12/4/12 13/3/11 59/10/62
f 73/19/63 74/8/16 14/18/15 60/27/64
f 14/89/15 15/88/17 16/93/34 60/95/64
f 60/95/64 16/93/34 17/97/31 58/99/61
f 58/21/61 59/10/62 73/19/63 60/27/64
f 26/45/43 27/39/41 19/34/39 61/37/65
f 61/37/65 19/34/39 20/33/37 62/38/66
f 20/117/37 21/118/20 22/115/19 62/112/66
f 62/112/66 22/115/19 23/111/22 63/105/67
f 23/111/22 24/107/23 25/102/46 63/105/67
f 63/105/67 25/102/46 26/101/43 61/106/65
f 61/106/65 62/112/66 63/105/67
f 35/35/40 36/40/42 28/48/50 64/42/68
f 64/42/68 28/48/50 29/55/48 65/50/69
f 29/85/48 30/80/4 31/79/3 65/86/69
f 65/86/69 31/79/3 32/84/6 66/91/70
f 32/49/6 33/44/8 34/36/38 66/41/70
f 66/41/70 34/36/38 35/35/40 64/42/68
f 64/42/68 65/50/69 66/41/70
f 44/116/28 45/119/30 37/120/55 67/114/71
f 67/61/71 37/57/55 38/52/53 68/56/72
f 38/52/53 39/46/45 40/51/44 68/56/72
f 68/109/72 40/104/44 41/103/47 69/110/73
f 41/103/47 42/108/26 43/113/25 69/110/73
f 69/110/73 43/113/25 44/116/28 67/114/71
f 67/114/71 68/109/72 69/110/73
f 53/54/51 54/47/52 46/53/54 70/59/74
f 70/59/74 46/53/54 47/58/56 71/64/75
f 47/58/56 48/63/33 49/66/32 71/64/75
f 71/100/75 49/98/32 50/94/35 72/96/76
f 50/94/35 51/87/36 52/92/49 72/96/76
f 72/65/76 52/60/49 53/54/51 70/59/74
f 70/59/74 71/64/75 72/65/76
f 59/10/62 13/3/11 74/8/16 73/19/63
f 5/2/10 75/7/13 74/8/16 13/3/11
f 76/16/59 75/7/13 5/2/10 57/6/60
