# This file uses centimeters as units for non-parametric coordinates.

mtllib robotScreen1.mtl
g default
v 0.000000 1.091203 -0.016007
v -0.000000 1.017168 0.021436
v -0.000000 0.937077 0.022077
v 0.533669 1.091203 -0.016007
v 0.533669 1.017168 0.021436
v 0.533669 0.957228 0.027207
v 0.338195 1.091203 -0.016007
v 0.232448 1.091203 -0.016007
v 0.338195 1.017168 0.021436
v 0.230842 1.017168 0.021436
v 0.338195 0.937077 0.022077
v 0.230842 0.937077 0.022077
v 0.124404 1.091203 -0.016007
v 0.124404 1.017168 0.021436
v 0.124404 0.937077 0.022077
v 0.170028 1.091203 -0.016007
v 0.170028 1.017168 0.021436
v 0.170028 0.937077 0.022077
v 0.444369 1.017168 0.021436
v 0.444369 1.091203 -0.016007
v 0.444369 0.941554 0.023668
v -0.533669 1.091203 -0.016007
v -0.533669 1.017168 0.021436
v -0.533669 0.957228 0.027207
v -0.338195 1.091203 -0.016007
v -0.232448 1.091203 -0.016007
v -0.338195 1.017168 0.021436
v -0.230842 1.017168 0.021436
v -0.338195 0.937077 0.022077
v -0.230842 0.937077 0.022077
v -0.124404 1.091203 -0.016007
v -0.124404 1.017168 0.021436
v -0.124404 0.937077 0.022077
v -0.170028 1.091203 -0.016007
v -0.170028 1.017168 0.021436
v -0.170028 0.937077 0.022077
v -0.444369 1.017168 0.021436
v -0.444369 1.091203 -0.016007
v -0.444369 0.941554 0.023668
v 0.579772 1.116631 -0.041799
v 0.533669 1.142735 -0.064041
v 0.627364 1.063729 -0.013479
v 0.641471 1.017230 0.013733
v 0.634454 0.986181 0.028135
v 0.533669 0.898323 -0.006639
v 0.605969 0.930687 0.006155
v 0.338195 1.186128 -0.118716
v 0.244334 1.158775 -0.084181
v 0.230842 0.845589 -0.041667
v 0.338195 0.849226 -0.041667
v 0.124404 1.136896 -0.084181
v 0.000000 1.136896 -0.084181
v 0.000000 0.842400 -0.041667
v 0.124404 0.845589 -0.041667
v 0.171666 1.138556 -0.084181
v 0.170028 0.845589 -0.041667
v 0.444376 1.170926 -0.086779
v 0.444369 0.865139 -0.029050
v -0.579772 1.116631 -0.041799
v -0.627364 1.063729 -0.013479
v -0.533669 1.142735 -0.064041
v -0.641471 1.017230 0.013733
v -0.634454 0.986181 0.028135
v -0.605969 0.930687 0.006155
v -0.533669 0.898323 -0.006639
v -0.244334 1.158775 -0.084181
v -0.338195 1.186128 -0.118716
v -0.338195 0.849226 -0.041667
v -0.230842 0.845589 -0.041667
v -0.124404 1.136896 -0.084181
v -0.124404 0.845589 -0.041667
v -0.171666 1.138556 -0.084181
v -0.170028 0.845589 -0.041667
v -0.444376 1.170926 -0.086779
v -0.444369 0.865139 -0.029050
vt 0.948080 0.746566
vt 0.912553 0.771321
vt 0.912553 0.722451
vt 0.984755 0.696397
vt 0.912553 0.652241
vt 0.995626 0.652301
vt 0.912553 0.595398
vt 0.990218 0.622856
vt 0.912553 0.539537
vt 0.968268 0.570229
vt 0.761920 0.812472
vt 0.689591 0.786532
vt 0.680431 0.722451
vt 0.761920 0.722451
vt 0.679193 0.652241
vt 0.761920 0.652241
vt 0.679193 0.576288
vt 0.761920 0.576288
vt 0.679193 0.489528
vt 0.761920 0.492977
vt 0.597172 0.765784
vt 0.501306 0.765784
vt 0.501306 0.722451
vt 0.597172 0.722451
vt 0.501306 0.652241
vt 0.597172 0.652241
vt 0.501306 0.576288
vt 0.597172 0.576288
vt 0.501306 0.486504
vt 0.597172 0.489528
vt 0.633592 0.767358
vt 0.632330 0.722451
vt 0.632330 0.652241
vt 0.632330 0.576288
vt 0.632330 0.489528
vt 0.843738 0.722451
vt 0.843738 0.652241
vt 0.843744 0.798055
vt 0.843738 0.580535
vt 0.843738 0.508067
vt 0.054531 0.746566
vt 0.017856 0.696397
vt 0.090058 0.722451
vt 0.090058 0.771321
vt 0.006986 0.652301
vt 0.090058 0.652241
vt 0.012393 0.622856
vt 0.090058 0.595398
vt 0.034344 0.570229
vt 0.090058 0.539537
vt 0.240691 0.812472
vt 0.240691 0.722451
vt 0.322180 0.722451
vt 0.313021 0.786532
vt 0.240691 0.652241
vt 0.323418 0.652241
vt 0.240691 0.576288
vt 0.323418 0.576288
vt 0.240691 0.492977
vt 0.323418 0.489528
vt 0.405440 0.765784
vt 0.405440 0.722451
vt 0.405440 0.652241
vt 0.405440 0.576288
vt 0.405440 0.489528
vt 0.370282 0.722451
vt 0.369019 0.767358
vt 0.370282 0.652241
vt 0.370282 0.576288
vt 0.370282 0.489528
vt 0.158873 0.652241
vt 0.158873 0.722451
vt 0.158867 0.798055
vt 0.158873 0.508067
vt 0.158873 0.580535
vn 0.097567 0.615975 0.781700
vn 0.027782 0.661258 0.749644
vn 0.040416 0.558721 0.828370
vn 0.089207 0.500010 0.861413
vn 0.018041 0.323841 0.945940
vn 0.052855 0.375060 0.925492
vn 0.024602 -0.224305 0.974208
vn 0.031092 0.007186 0.999491
vn 0.043972 -0.515384 0.855830
vn 0.090932 -0.454938 0.885869
vn -0.022335 0.713159 0.700647
vn -0.011431 0.735020 0.677950
vn -0.017205 0.621540 0.783194
vn -0.011976 0.612334 0.790508
vn 0.000000 0.239505 0.970895
vn -0.001937 0.243461 0.969909
vn 0.003793 -0.347240 0.937769
vn 0.001679 -0.345676 0.938352
vn 0.006195 -0.576545 0.817042
vn 0.005926 -0.578939 0.815349
vn -0.004066 0.829408 0.558628
vn 0.000000 0.830676 0.556757
vn 0.000000 0.661530 0.749919
vn -0.002077 0.661310 0.750110
vn -0.000000 0.239880 0.970803
vn 0.000000 0.239880 0.970802
vn 0.000000 -0.342370 0.939565
vn 0.003250 -0.343117 0.939287
vn 0.000000 -0.565025 0.825074
vn 0.005333 -0.566772 0.823858
vn -0.078906 0.788664 0.609741
vn -0.040493 0.645852 0.762388
vn 0.000000 0.240734 0.970591
vn -0.000000 -0.345174 0.938539
vn -0.000001 -0.571673 0.820482
vn -0.017503 0.593461 0.804673
vn -0.007254 0.262394 0.964934
vn -0.037408 0.695050 0.717987
vn 0.000218 -0.320106 0.947382
vn 0.008289 -0.566452 0.824053
vn -0.097567 0.615975 0.781700
vn -0.089207 0.500009 0.861413
vn -0.040416 0.558721 0.828370
vn -0.027782 0.661258 0.749644
vn -0.052855 0.375060 0.925492
vn -0.018041 0.323841 0.945940
vn -0.031092 0.007186 0.999491
vn -0.024602 -0.224305 0.974208
vn -0.090932 -0.454938 0.885869
vn -0.043972 -0.515384 0.855830
vn 0.022335 0.713159 0.700647
vn 0.011976 0.612334 0.790508
vn 0.017205 0.621540 0.783194
vn 0.011431 0.735020 0.677950
vn 0.001937 0.243461 0.969909
vn 0.000000 0.239505 0.970895
vn -0.001679 -0.345676 0.938352
vn -0.003793 -0.347240 0.937769
vn -0.005926 -0.578939 0.815349
vn -0.006195 -0.576545 0.817042
vn 0.004066 0.829409 0.558627
vn 0.002077 0.661310 0.750109
vn -0.000000 0.239880 0.970803
vn -0.003250 -0.343117 0.939287
vn -0.005333 -0.566772 0.823858
vn 0.040493 0.645852 0.762388
vn 0.078906 0.788664 0.609741
vn 0.000000 0.240734 0.970591
vn 0.000000 -0.345174 0.938539
vn 0.000001 -0.571673 0.820482
vn 0.007254 0.262394 0.964934
vn 0.017503 0.593461 0.804673
vn 0.037408 0.695051 0.717987
vn -0.008289 -0.566452 0.824053
vn -0.000218 -0.320106 0.947382
s 1
g polySurface1 ROBOT2
usemtl lambert6SG
f 40/1/1 41/2/2 4/3/3 42/4/4
f 42/4/4 4/3/3 5/5/5 43/6/6
f 43/6/6 5/5/5 6/7/7 44/8/8
f 44/8/8 6/7/7 45/9/9 46/10/10
f 47/11/11 48/12/12 8/13/13 7/14/14
f 7/14/14 8/13/13 10/15/15 9/16/16
f 9/16/16 10/15/15 12/17/17 11/18/18
f 11/18/18 12/17/17 49/19/19 50/20/20
f 51/21/21 52/22/22 1/23/23 13/24/24
f 13/24/24 1/23/23 2/25/25 14/26/26
f 14/26/26 2/25/25 3/27/27 15/28/28
f 15/28/28 3/27/27 53/29/29 54/30/30
f 48/12/12 55/31/31 16/32/32 8/13/13
f 8/13/13 16/32/32 17/33/33 10/15/15
f 10/15/15 17/33/33 18/34/34 12/17/17
f 12/17/17 18/34/34 56/35/35 49/19/19
f 55/31/31 51/21/21 13/24/24 16/32/32
f 16/32/32 13/24/24 14/26/26 17/33/33
f 17/33/33 14/26/26 15/28/28 18/34/34
f 18/34/34 15/28/28 54/30/30 56/35/35
f 4/3/3 20/36/36 19/37/37 5/5/5
f 41/2/2 57/38/38 20/36/36 4/3/3
f 6/7/7 21/39/39 58/40/40 45/9/9
f 5/5/5 19/37/37 21/39/39 6/7/7
f 57/38/38 47/11/11 7/14/14 20/36/36
f 20/36/36 7/14/14 9/16/16 19/37/37
f 19/37/37 9/16/16 11/18/18 21/39/39
f 21/39/39 11/18/18 50/20/20 58/40/40
f 59/41/41 60/42/42 22/43/43 61/44/44
f 60/42/42 62/45/45 23/46/46 22/43/43
f 62/45/45 63/47/47 24/48/48 23/46/46
f 63/47/47 64/49/49 65/50/50 24/48/48
f 67/51/51 25/52/52 26/53/53 66/54/54
f 25/52/52 27/55/55 28/56/56 26/53/53
f 27/55/55 29/57/57 30/58/58 28/56/56
f 29/57/57 68/59/59 69/60/60 30/58/58
f 70/61/61 31/62/62 1/23/23 52/22/22
f 31/62/62 32/63/63 2/25/25 1/23/23
f 32/63/63 33/64/64 3/27/27 2/25/25
f 33/64/64 71/65/65 53/29/29 3/27/27
f 66/54/54 26/53/53 34/66/66 72/67/67
f 26/53/53 28/56/56 35/68/68 34/66/66
f 28/56/56 30/58/58 36/69/69 35/68/68
f 30/58/58 69/60/60 73/70/70 36/69/69
f 72/67/67 34/66/66 31/62/62 70/61/61
f 34/66/66 35/68/68 32/63/63 31/62/62
f 35/68/68 36/69/69 33/64/64 32/63/63
f 36/69/69 73/70/70 71/65/65 33/64/64
f 22/43/43 23/46/46 37/71/71 38/72/72
f 61/44/44 22/43/43 38/72/72 74/73/73
f 24/48/48 65/50/50 75/74/74 39/75/75
f 23/46/46 24/48/48 39/75/75 37/71/71
f 74/73/73 38/72/72 25/52/52 67/51/51
f 38/72/72 37/71/71 27/55/55 25/52/52
f 37/71/71 39/75/75 29/57/57 27/55/55
f 39/75/75 75/74/74 68/59/59 29/57/57
